<svg fill="none" height="14"  viewBox="0 0 14 14" width="14" xmlns="http://www.w3.org/2000/svg"><g stroke="#4147d5" stroke-linecap="round" stroke-linejoin="round" stroke-width="1.5"><path d="m12.4962 8.37494c-.4071 1.15368-1.1466 2.16106-2.1254 2.89506-.97869.7341-2.15281 1.162-3.37434 1.2298-1.12919.0002-2.23107-.3472-3.15598-.995-.92491-.6477-1.62802-1.56448-2.01382-2.62571"/><path d="m1.4967 5.62508c.76997-2.10825 3.13488-4.12484 5.49979-4.12484 1.13468.00319 2.24061.35727 3.16611 1.01368.9256.65642 1.6255 1.58305 2.0037 2.65285"/><path d="m13.1378 10.3957c-.1756-.83035-.3159-1.27247-.6403-2.01685-.7952.1644-1.2373.30481-2.0168.6403"/><path d="m1.01495 3.57285c.11369.84102.22091 1.29231.48932 2.05866.80516-.10511 1.25642-.21242 2.05866-.48932"/></g></svg>